<?xml version="1.0" encoding="UTF-8" standalone="no"?>
<!-- Created with Inkscape (http://www.inkscape.org/) -->

<svg
   xmlns:dc="http://purl.org/dc/elements/1.1/"
   xmlns:cc="http://creativecommons.org/ns#"
   xmlns:rdf="http://www.w3.org/1999/02/22-rdf-syntax-ns#"
   xmlns:svg="http://www.w3.org/2000/svg"
   xmlns="http://www.w3.org/2000/svg"
   xmlns:sodipodi="http://sodipodi.sourceforge.net/DTD/sodipodi-0.dtd"
   xmlns:inkscape="http://www.inkscape.org/namespaces/inkscape"
   width="210mm"
   height="297mm"
   id="svg3130"
   version="1.1"
   inkscape:version="0.48.1 r9760"
   sodipodi:docname="Entwürfe_4.svg">
  <sodipodi:namedview
     id="base"
     pagecolor="#ffffff"
     bordercolor="#666666"
     borderopacity="1.0"
     inkscape:pageopacity="0.0"
     inkscape:pageshadow="2"
     inkscape:zoom="1.4"
     inkscape:cx="331.62441"
     inkscape:cy="490.41332"
     inkscape:document-units="px"
     inkscape:current-layer="layer1"
     showgrid="false"
     inkscape:window-width="1920"
     inkscape:window-height="1051"
     inkscape:window-x="1440"
     inkscape:window-y="0"
     inkscape:window-maximized="1" />
  <defs
     id="defs3132">
    <filter
       color-interpolation-filters="sRGB"
       inkscape:menu-tooltip="Smooth colorized contour which allows desaturation and hue rotation"
       inkscape:menu="Blurs"
       inkscape:label="Fancy blur"
       id="filter4522-8">
      <feGaussianBlur
         result="result1"
         stdDeviation="5"
         id="feGaussianBlur4524-5" />
      <feComposite
         in="result1"
         k2="2"
         operator="arithmetic"
         in2="result1"
         id="feComposite4526-6"
         k1="0"
         k3="0"
         k4="0" />
    </filter>
    <filter
       color-interpolation-filters="sRGB"
       inkscape:menu-tooltip="Smooth colorized contour which allows desaturation and hue rotation"
       inkscape:menu="Blurs"
       inkscape:label="Fancy blur"
       id="filter4522-8-4">
      <feGaussianBlur
         result="result1"
         stdDeviation="5"
         id="feGaussianBlur4524-5-3" />
      <feComposite
         in="result1"
         k2="2"
         operator="arithmetic"
         in2="result1"
         id="feComposite4526-6-7"
         k1="0"
         k3="0"
         k4="0" />
    </filter>
    <filter
       id="filter5317"
       inkscape:label="Fancy blur"
       inkscape:menu="Blurs"
       inkscape:menu-tooltip="Smooth colorized contour which allows desaturation and hue rotation"
       color-interpolation-filters="sRGB">
      <feGaussianBlur
         id="feGaussianBlur5319"
         stdDeviation="5"
         result="result1" />
      <feComposite
         id="feComposite5321"
         in2="result1"
         operator="arithmetic"
         k2="2"
         in="result1" />
    </filter>
    <filter
       inkscape:collect="always"
       id="filter5345">
      <feGaussianBlur
         inkscape:collect="always"
         stdDeviation="1.6612633"
         id="feGaussianBlur5347" />
    </filter>
  </defs>
  <metadata
     id="metadata3135">
    <rdf:RDF>
      <cc:Work
         rdf:about="">
        <dc:format>image/svg+xml</dc:format>
        <dc:type
           rdf:resource="http://purl.org/dc/dcmitype/StillImage" />
        <dc:title></dc:title>
      </cc:Work>
    </rdf:RDF>
  </metadata>
  <g
     id="layer1"
     inkscape:groupmode="layer"
     inkscape:label="Ebene 1">
    <g
       transform="matrix(0.97316654,0,0,0.97316654,-135.07657,29.684668)"
       style="font-size:24px;font-style:normal;font-variant:normal;font-weight:normal;font-stretch:normal;line-height:125%;letter-spacing:0px;word-spacing:0px;fill:#666666;fill-opacity:1;stroke:none;font-family:DejaVu Serif;-inkscape-font-specification:DejaVu Serif"
       id="text4681" />
    <path
       transform="matrix(0,1,-1,0,587.84685,12.38271)"
       d="m 265.23477,357.00657 -72.37762,41.78724 -72.37762,-41.78724 0,-83.57448 72.37762,-41.78724 72.37762,41.78724 z"
       inkscape:randomized="0"
       inkscape:rounded="0"
       inkscape:flatsided="true"
       sodipodi:arg2="1.0471976"
       sodipodi:arg1="0.52359878"
       sodipodi:r2="72.377625"
       sodipodi:r1="83.574478"
       sodipodi:cy="315.21933"
       sodipodi:cx="192.85715"
       sodipodi:sides="6"
       id="path2993-1"
       style="fill:#ef7c00;fill-opacity:1;fill-rule:nonzero;stroke:#000000;stroke-width:3;stroke-linecap:round;stroke-linejoin:round;stroke-miterlimit:4;stroke-opacity:1;stroke-dasharray:none;stroke-dashoffset:0"
       sodipodi:type="star" />
    <path
       d="m 265.23477,357.00657 -72.37762,41.78724 -72.37762,-41.78724 0,-83.57448 72.37762,-41.78724 72.37762,41.78724 z"
       inkscape:randomized="0"
       inkscape:rounded="0"
       inkscape:flatsided="true"
       sodipodi:arg2="1.0471976"
       sodipodi:arg1="0.52359878"
       sodipodi:r2="72.377625"
       sodipodi:r1="83.574478"
       sodipodi:cy="315.21933"
       sodipodi:cx="192.85715"
       sodipodi:sides="6"
       id="path2993-0-3"
       style="fill:#bd1788;fill-opacity:1;fill-rule:nonzero;stroke:#000000;stroke-width:3;stroke-linecap:round;stroke-linejoin:round;stroke-miterlimit:4;stroke-opacity:1;stroke-dasharray:none;stroke-dashoffset:0"
       sodipodi:type="star"
       transform="matrix(0,1,-1,0,716.41828,-62.6173)" />
    <path
       d="m 265.23477,357.00657 -72.37762,41.78724 -72.37762,-41.78724 0,-83.57448 72.37762,-41.78724 72.37762,41.78724 z"
       inkscape:randomized="0"
       inkscape:rounded="0"
       inkscape:flatsided="true"
       sodipodi:arg2="1.0471976"
       sodipodi:arg1="0.52359878"
       sodipodi:r2="72.377625"
       sodipodi:r1="83.574478"
       sodipodi:cy="315.21933"
       sodipodi:cx="192.85715"
       sodipodi:sides="6"
       id="path2993-8-8"
       style="fill:#86ba0c;fill-opacity:1;fill-rule:nonzero;stroke:#000000;stroke-width:3;stroke-linecap:round;stroke-linejoin:round;stroke-miterlimit:4;stroke-opacity:1;stroke-dasharray:none;stroke-dashoffset:0"
       sodipodi:type="star"
       transform="matrix(0,1,-1,0,587.13257,-136.90301)" />
    <path
       transform="matrix(0.50958455,-0.86042059,0.86042059,0.50958455,160.0607,221.9195)"
       sodipodi:nodetypes="cccc"
       inkscape:connector-curvature="0"
       id="path2993-6-6-0"
       d="m 155.1034,85.77467 87.4459,0 43.72295,75.73038 -43.72295,75.73037"
       style="fill:none;stroke:#28e3e5;stroke-width:4.11299992;stroke-linecap:square;stroke-linejoin:miter;stroke-miterlimit:4;stroke-opacity:1;stroke-dasharray:none;stroke-dashoffset:0;filter:url(#filter4522-8-4)" />
    <g
       transform="matrix(0.97316654,0,0,0.97316654,55.069061,-314.9832)"
       style="font-size:24px;font-style:normal;font-variant:normal;font-weight:normal;font-stretch:normal;line-height:125%;letter-spacing:0px;word-spacing:0px;fill:#666666;fill-opacity:1;stroke:none;font-family:DejaVu Serif;-inkscape-font-specification:DejaVu Serif"
       id="text4681-9">
      <path
         d="m 316.97623,538.28528 32.25,0 0,6.82031 -11.60157,0 0,28.17188 -9.02343,0 0,-28.17188 -11.625,0 0,-6.82031"
         style="font-size:48px;font-weight:bold;fill:#666666;font-family:DejaVu Sans;-inkscape-font-specification:DejaVu Sans Bold"
         id="path3229-7"
         inkscape:connector-curvature="0" />
      <path
         d="m 367.74185,554.1759 c -0.7344,-0.34373 -1.46877,-0.59373 -2.20312,-0.75 -0.71877,-0.17185 -1.44534,-0.25779 -2.17969,-0.25781 -2.15627,2e-5 -3.82033,0.69533 -4.99219,2.08594 -1.15626,1.37501 -1.73439,3.35158 -1.73437,5.92969 l 0,12.09375 -8.39063,0 0,-26.25 8.39063,0 0,4.3125 c 1.07811,-1.71873 2.31248,-2.96873 3.70312,-3.75 1.40623,-0.79685 3.08592,-1.19529 5.03906,-1.19532 0.28123,3e-5 0.58592,0.0157 0.91407,0.0469 0.3281,0.0157 0.80466,0.0625 1.42968,0.14062 l 0.0234,7.59375"
         style="font-size:48px;font-weight:bold;fill:#666666;font-family:DejaVu Sans;-inkscape-font-specification:DejaVu Sans Bold"
         id="path3231-9"
         inkscape:connector-curvature="0" />
      <path
         d="m 371.9606,547.02747 8.39063,0 0,26.25 -8.39063,0 0,-26.25 m 0,-10.21875 8.39063,0 0,6.84375 -8.39063,0 0,-6.84375"
         style="font-size:48px;font-weight:bold;fill:#666666;font-family:DejaVu Sans;-inkscape-font-specification:DejaVu Sans Bold"
         id="path3233-9"
         inkscape:connector-curvature="0" />
      <path
         d="m 396.85123,569.48059 0,13.78125 -8.39063,0 0,-36.23437 8.39063,0 0,3.84375 c 1.15623,-1.53123 2.43748,-2.65623 3.84375,-3.375 1.40623,-0.73435 3.02342,-1.10154 4.85156,-1.10157 3.23435,3e-5 5.8906,1.28909 7.96875,3.86719 2.07809,2.56252 3.11715,5.86721 3.11719,9.91406 -4e-5,4.04689 -1.0391,7.35938 -3.11719,9.9375 -2.07815,2.5625 -4.7344,3.84375 -7.96875,3.84375 -1.82814,0 -3.44533,-0.35937 -4.85156,-1.07812 -1.40627,-0.73438 -2.68752,-1.86719 -3.84375,-3.39844 m 5.57812,-16.99219 c -1.79689,2e-5 -3.1797,0.66409 -4.14844,1.99219 -0.95313,1.31252 -1.4297,3.21095 -1.42968,5.69531 -2e-5,2.48439 0.47655,4.39064 1.42968,5.71875 0.96874,1.31251 2.35155,1.96876 4.14844,1.96875 1.79686,1e-5 3.16404,-0.65624 4.10156,-1.96875 0.95311,-1.31249 1.42967,-3.21874 1.42969,-5.71875 -2e-5,-2.49998 -0.47658,-4.40623 -1.42969,-5.71875 -0.93752,-1.31248 -2.3047,-1.96873 -4.10156,-1.96875"
         style="font-size:48px;font-weight:bold;fill:#666666;font-family:DejaVu Sans;-inkscape-font-specification:DejaVu Sans Bold"
         id="path3235-3"
         inkscape:connector-curvature="0" />
      <path
         d="m 422.86685,536.80872 8.39063,0 0,36.46875 -8.39063,0 0,-36.46875"
         style="font-size:48px;font-weight:bold;fill:#666666;font-family:DejaVu Sans;-inkscape-font-specification:DejaVu Sans Bold"
         id="path3237-2"
         inkscape:connector-curvature="0" />
      <path
         d="m 465.56998,560.08215 0,2.39063 -19.61719,0 c 0.20311,1.96876 0.91405,3.44532 2.13281,4.42969 1.21874,0.98438 2.92186,1.47656 5.10938,1.47656 1.7656,0 3.57029,-0.25781 5.41406,-0.77344 1.85935,-0.53124 3.7656,-1.32812 5.71875,-2.39062 l 0,6.46875 c -1.9844,0.75 -3.96878,1.3125 -5.95313,1.6875 -1.98439,0.39062 -3.96876,0.58593 -5.95312,0.58593 -4.75001,0 -8.44532,-1.20312 -11.08594,-3.60937 -2.625,-2.42187 -3.9375,-5.81249 -3.9375,-10.17188 0,-4.28123 1.28906,-7.64841 3.86719,-10.10156 2.59374,-2.4531 6.15624,-3.67966 10.6875,-3.67969 4.12498,3e-5 7.42185,1.24222 9.89062,3.72657 2.48435,2.48439 3.72654,5.8047 3.72657,9.96093 m -8.625,-2.78906 c -2e-5,-1.59373 -0.46877,-2.87498 -1.40625,-3.84375 -0.9219,-0.98435 -2.13283,-1.47654 -3.63282,-1.47656 -1.62501,2e-5 -2.94532,0.46096 -3.96093,1.38281 -1.01564,0.90627 -1.64845,2.21877 -1.89844,3.9375 l 10.89844,0"
         style="font-size:48px;font-weight:bold;fill:#666666;font-family:DejaVu Sans;-inkscape-font-specification:DejaVu Sans Bold"
         id="path3239-4"
         inkscape:connector-curvature="0" />
    </g>
    <g
       transform="matrix(0.97316654,0,0,0.97316654,55.069061,-314.9832)"
       style="font-size:24px;font-style:normal;font-variant:normal;font-weight:normal;font-stretch:normal;line-height:125%;letter-spacing:0px;word-spacing:0px;fill:#666666;fill-opacity:1;stroke:none;font-family:DejaVu Serif;-inkscape-font-specification:DejaVu Serif"
       id="text4681-6-3">
      <path
         d="m 294.31046,577.92621 14.97656,0 c 4.4531,3e-5 7.86716,0.99222 10.24219,2.97656 2.39059,1.96878 3.5859,4.78128 3.58593,8.4375 -3e-5,3.6719 -1.19534,6.50002 -3.58593,8.48438 -2.37503,1.96876 -5.78909,2.95313 -10.24219,2.95312 l -5.95313,0 0,12.14063 -9.02343,0 0,-34.99219 m 9.02343,6.53906 0,9.77344 4.99219,0 c 1.74998,2e-5 3.10154,-0.42186 4.05469,-1.26563 0.9531,-0.85935 1.42966,-2.07029 1.42969,-3.63281 -3e-5,-1.56247 -0.47659,-2.7656 -1.42969,-3.60937 -0.95315,-0.84373 -2.30471,-1.2656 -4.05469,-1.26563 l -4.99219,0"
         style="font-size:48px;font-weight:bold;fill:#666666;font-family:DejaVu Sans;-inkscape-font-specification:DejaVu Sans Bold"
         id="path3242-7"
         inkscape:connector-curvature="0" />
      <path
         d="m 329.09171,576.44965 8.39062,0 0,36.46875 -8.39062,0 0,-36.46875"
         style="font-size:48px;font-weight:bold;fill:#666666;font-family:DejaVu Sans;-inkscape-font-specification:DejaVu Sans Bold"
         id="path3244-1"
         inkscape:connector-curvature="0" />
      <path
         d="m 357.35733,601.1059 c -1.75001,10e-6 -3.07032,0.29688 -3.96094,0.89062 -0.87501,0.59376 -1.31251,1.46876 -1.3125,2.625 -10e-6,1.06251 0.35155,1.89844 1.05469,2.50781 0.71874,0.59376 1.71092,0.89063 2.97656,0.89063 1.57811,0 2.90624,-0.5625 3.98438,-1.6875 1.0781,-1.14062 1.61717,-2.56249 1.61719,-4.26563 l 0,-0.96093 -4.35938,0 m 12.82031,-3.16407 0,14.97657 -8.46093,0 0,-3.89063 c -1.12502,1.59375 -2.39065,2.75781 -3.79688,3.49219 -1.40626,0.71875 -3.1172,1.07812 -5.13281,1.07812 -2.71876,0 -4.9297,-0.78906 -6.63281,-2.36718 -1.68751,-1.59375 -2.53126,-3.65625 -2.53125,-6.1875 -10e-6,-3.07812 1.05468,-5.33593 3.16406,-6.77344 2.12499,-1.43749 5.45311,-2.15623 9.98437,-2.15625 l 4.94532,0 0,-0.65625 c -2e-5,-1.32811 -0.52346,-2.29686 -1.57032,-2.90625 -1.04689,-0.62498 -2.6797,-0.93748 -4.89843,-0.9375 -1.79689,2e-5 -3.46876,0.17971 -5.01563,0.53906 -1.54688,0.3594 -2.98438,0.89846 -4.3125,1.61719 l 0,-6.39844 c 1.79687,-0.43747 3.60155,-0.7656 5.41406,-0.98437 1.81249,-0.23435 3.62499,-0.35154 5.4375,-0.35157 4.73436,3e-5 8.14842,0.93753 10.24219,2.8125 2.10935,1.8594 3.16403,4.89065 3.16406,9.09375"
         style="font-size:48px;font-weight:bold;fill:#666666;font-family:DejaVu Sans;-inkscape-font-specification:DejaVu Sans Bold"
         id="path3246-2"
         inkscape:connector-curvature="0" />
      <path
         d="m 399.24014,587.48871 0,6.84375 c -1.14065,-0.78123 -2.28908,-1.35936 -3.44531,-1.73438 -1.14065,-0.37498 -2.32814,-0.56248 -3.5625,-0.5625 -2.34377,2e-5 -4.17189,0.68752 -5.48437,2.0625 -1.29689,1.3594 -1.94533,3.26564 -1.94532,5.71875 -10e-6,2.45314 0.64843,4.3672 1.94532,5.74219 1.31248,1.35938 3.1406,2.03907 5.48437,2.03906 1.31248,10e-6 2.55467,-0.1953 3.72656,-0.58593 1.18748,-0.39062 2.28123,-0.96875 3.28125,-1.73438 l 0,6.86719 c -1.31252,0.48437 -2.64846,0.84375 -4.00781,1.07812 -1.34377,0.25 -2.69533,0.375 -4.05469,0.375 -4.73438,0 -8.43751,-1.21093 -11.10937,-3.63281 -2.67188,-2.43749 -4.00782,-5.8203 -4.00781,-10.14844 -10e-6,-4.3281 1.33593,-7.7031 4.00781,-10.125 2.67186,-2.43747 6.37499,-3.65622 11.10937,-3.65625 1.37498,3e-5 2.72655,0.12503 4.05469,0.375 1.34373,0.2344 2.67966,0.59378 4.00781,1.07813"
         style="font-size:48px;font-weight:bold;fill:#666666;font-family:DejaVu Sans;-inkscape-font-specification:DejaVu Sans Bold"
         id="path3248-2"
         inkscape:connector-curvature="0" />
      <path
         d="m 432.73233,599.72308 0,2.39063 -19.61719,0 c 0.20312,1.96876 0.91405,3.44532 2.13282,4.42969 1.21873,0.98438 2.92185,1.47656 5.10937,1.47656 1.76561,0 3.57029,-0.25781 5.41406,-0.77344 1.85935,-0.53124 3.7656,-1.32812 5.71875,-2.39062 l 0,6.46875 c -1.9844,0.75 -3.96877,1.3125 -5.95312,1.6875 -1.9844,0.39062 -3.96877,0.58593 -5.95313,0.58593 -4.75001,0 -8.44532,-1.20312 -11.08593,-3.60937 -2.62501,-2.42187 -3.93751,-5.81249 -3.9375,-10.17188 -10e-6,-4.28123 1.28905,-7.64841 3.86718,-10.10156 2.59374,-2.4531 6.15624,-3.67966 10.6875,-3.67969 4.12498,3e-5 7.42185,1.24222 9.89063,3.72657 2.48434,2.48439 3.72653,5.8047 3.72656,9.96093 m -8.625,-2.78906 c -2e-5,-1.59373 -0.46877,-2.87498 -1.40625,-3.84375 -0.92189,-0.98435 -2.13283,-1.47654 -3.63281,-1.47656 -1.62502,2e-5 -2.94533,0.46096 -3.96094,1.38281 -1.01564,0.90627 -1.64845,2.21877 -1.89844,3.9375 l 10.89844,0"
         style="font-size:48px;font-weight:bold;fill:#666666;font-family:DejaVu Sans;-inkscape-font-specification:DejaVu Sans Bold"
         id="path3250-0"
         inkscape:connector-curvature="0" />
    </g>
    <path
       sodipodi:nodetypes="ccccc"
       inkscape:connector-curvature="0"
       id="path3602"
       d="m 663.67023,339.19448 59.08681,-274.971252 289.41586,-50.50763 -8.158,385.151532 z"
       style="fill:none;stroke:#000000;stroke-width:1px;stroke-linecap:butt;stroke-linejoin:miter;stroke-opacity:1" />
    <path
       sodipodi:nodetypes="ccccc"
       inkscape:connector-curvature="0"
       id="path3602-2"
       d="M 535.19268,729.52371 574.99377,484.55246 860.83816,424.04483 831.96593,751.33921 z"
       style="fill:none;stroke:#000000;stroke-width:1px;stroke-linecap:butt;stroke-linejoin:miter;stroke-opacity:1" />
    <g
       id="g5400">
      <path
         d="m 196.09906,595.07867 c 0,0 40.17364,-0.71201 40.17364,-0.71201 0,0 -0.60884,7.79811 -0.60884,7.79811 0,0 -14.80628,0.16156 -14.80628,0.16156 0,0 -2.63195,32.1259 -2.63195,32.1259 0,0 -11.32013,-0.19924 -11.32013,-0.19924 0,0 2.69861,-31.80388 2.69861,-31.80388 0,0 -14.17129,0.15463 -14.17129,0.15463 0,0 0.66624,-7.52507 0.66624,-7.52507 m 63.25389,17.46201 c -0.96279,-0.40227 -1.93165,-0.69372 -2.90666,-0.87468 -0.95103,-0.19894 -1.91817,-0.29692 -2.90142,-0.29418 -2.87752,0.008 -5.14886,0.82442 -6.8224,2.44671 -1.64849,1.60114 -2.58503,3.90151 -2.81209,6.90677 0,0 -1.07003,14.16018 -1.07003,14.16018 0,0 -10.99712,-0.19357 -10.99712,-0.19357 0,0 2.37671,-30.31258 2.37671,-30.31258 0,0 10.93304,-0.0982 10.93304,-0.0982 0,0 -0.37742,4.99463 -0.37742,4.99463 1.57135,-2.00121 3.31093,-3.463 5.22094,-4.3851 1.93729,-0.94291 4.2111,-1.4279 6.8262,-1.45309 0.37751,-0.004 0.78547,0.0108 1.22396,0.043 0.44007,0.0141 1.07783,0.0628 1.91397,0.14624 0,0 -0.60774,8.9139 -0.60774,8.9139 m 7.16523,-20.43613 c 0,0 11.51873,-0.22109 11.51873,-0.22109 0,0 -0.54467,8.10155 -0.54467,8.10155 0,0 -11.53754,0.14266 -11.53754,0.14266 0,0 0.56348,-8.02312 0.56348,-8.02312 m -0.84222,11.99211 c 0,0 11.54683,-0.10374 11.54683,-0.10374 0,0 -2.11507,31.46048 -2.11507,31.46048 0,0 -11.61962,-0.20452 -11.61962,-0.20452 0,0 2.18786,-31.15222 2.18786,-31.15222 m 42.65047,6.28868 c -2.6297,0.009 -4.6945,0.82651 -6.20122,2.45007 -1.4807,1.60212 -2.31292,3.91762 -2.49843,6.9518 -0.18586,3.03901 0.36352,5.38009 1.65135,7.02352 1.31583,1.62966 3.29111,2.46231 5.93128,2.49418 2.65165,0.032 4.72408,-0.75799 6.21025,-2.37191 1.51153,-1.61601 2.35646,-3.97657 2.53291,-7.07615 0.17613,-3.09457 -0.39832,-5.45072 -1.72,-7.06837 -1.29449,-1.61256 -3.26505,-2.41234 -5.90614,-2.40314 m -9.39717,20.80839 c 0,0 -1.0407,17.01868 -1.0407,17.01868 0,0 -12.11486,-0.33745 -12.11486,-0.33745 0,0 2.82694,-43.98428 2.82694,-43.98428 0,0 12.00482,-0.10787 12.00482,-0.10787 0,0 -0.28526,4.66491 -0.28526,4.66491 1.78789,-1.87086 3.73098,-3.25244 5.83145,-4.14414 2.10768,-0.91332 4.50503,-1.38389 7.19632,-1.40983 4.79067,-0.046 8.6649,1.50607 11.60925,4.67255 2.9652,3.1685 4.32016,7.28596 4.0493,12.34624 -0.2717,5.07363 -2.07649,9.21791 -5.40527,12.41458 -3.31634,3.16611 -7.39733,4.70066 -12.22281,4.61237 -2.71069,-0.0496 -5.07218,-0.53918 -7.08762,-1.46624 -2.00657,-0.9428 -3.79329,-2.37019 -5.36156,-4.27952 m 41.12951,-40.50068 c 0,0 13.01501,-0.2498 13.01501,-0.2498 0,0 -2.2091,46.34359 -2.2091,46.34359 0,0 -13.14772,-0.23142 -13.14772,-0.23142 0,0 2.34181,-45.86237 2.34181,-45.86237 m 53.61888,25.7004 c 0.0771,-2.09449 -0.64864,-3.77544 -2.1736,-5.04162 -1.49349,-1.28276 -3.48836,-1.91768 -5.98087,-1.90769 -2.68944,0.0108 -4.89046,0.61741 -6.60886,1.81801 -1.71424,1.17804 -2.82071,2.87946 -3.32216,5.10689 0,0 18.08549,0.0244 18.08549,0.0244 m 14.55574,3.73215 c 0,0 -0.10524,3.18771 -0.10524,3.18771 0,0 -32.96888,-0.21741 -32.96888,-0.21741 0.22658,2.56593 1.31449,4.50274 3.26893,5.81059 1.96185,1.31284 4.76169,1.99399 8.40938,2.03996 2.9592,0.0373 6.01054,-0.2659 9.15427,-0.91182 3.18501,-0.66927 6.47678,-1.69465 9.87573,-3.07842 0,0 -0.29049,8.65425 -0.29049,8.65425 -3.44509,0.9488 -6.86523,1.64283 -10.2599,2.08378 -3.37888,0.45955 -6.73142,0.65794 -10.05716,0.59708 -7.89201,-0.14439 -13.89868,-1.82831 -18.06584,-5.03289 -4.10648,-3.19788 -6.02012,-7.59786 -5.76692,-13.20757 0.24797,-5.4933 2.50666,-9.80994 6.79227,-12.97321 4.33192,-3.17891 10.2038,-4.80984 17.66394,-4.88165 6.86692,-0.066 12.34974,1.50776 16.41826,4.74139 4.12834,3.25993 6.11415,7.65872 5.93165,13.18821 m -233.00039,26.01407 c 0,0 -1.01261,10.91867 -1.01261,10.91867 0,0 5.92069,0.23219 5.92069,0.23219 2.09083,0.082 3.75419,-0.33127 4.98553,-1.2412 1.23485,-0.92902 1.93218,-2.27806 2.09037,-4.04479 0.15798,-1.76509 -0.29446,-3.14108 -1.35516,-4.12727 -1.05802,-0.98361 -2.63243,-1.50491 -4.71928,-1.56566 0,0 -5.90954,-0.17194 -5.90954,-0.17194 m -9.83305,-7.5062 c 0,0 17.55296,0.39258 17.55296,0.39258 5.33048,0.11925 9.35367,1.32986 12.04327,3.64199 2.72751,2.30985 3.91758,5.55249 3.5564,9.72343 -0.36357,4.19783 -2.11539,7.37705 -5.24508,9.52419 -3.09622,2.1213 -7.33659,3.05452 -12.69106,2.80805 0,0 -7.07674,-0.32575 -7.07674,-0.32575 0,0 -1.27059,13.70052 -1.27059,13.70052 0,0 -10.57697,-0.62163 -10.57697,-0.62163 0,0 3.70781,-38.84338 3.70781,-38.84338 m 41.80881,-0.75364 c 0,0 10.53734,0.21971 10.53734,0.21971 0,0 -3.48114,42.46716 -3.48114,42.46716 0,0 -10.61867,-0.62409 -10.61867,-0.62409 0,0 3.56247,-42.06278 3.56247,-42.06278 m 51.73702,26.99738 c 0,0 -1.29247,18.23955 -1.29247,18.23955 0,0 -11.54682,-0.67864 -11.54682,-0.67864 0,0 0.34744,-4.70678 0.34744,-4.70678 -1.65954,1.8412 -3.46656,3.14973 -5.41897,3.92622 -1.94549,0.75547 -4.25792,1.05259 -6.93197,0.89351 -3.58717,-0.2134 -6.41388,-1.32632 -8.48939,-3.33241 -2.04371,-2.01372 -2.94222,-4.51327 -2.70323,-7.50253 0.29012,-3.62892 1.86684,-6.2252 4.73912,-7.79856 2.90407,-1.57873 7.33591,-2.24797 13.33365,-2.00109 0,0 6.61809,0.27245 6.61809,0.27245 0,0 0.0581,-0.78653 0.0581,-0.78653 0.11739,-1.59078 -0.50064,-2.77712 -1.85118,-3.55834 -1.3454,-0.79761 -3.49557,-1.24955 -6.44193,-1.35709 -2.37515,-0.0866 -4.59263,0.0453 -6.65464,0.39491 -2.05518,0.34842 -3.9779,0.91242 -5.76979,1.69134 0,0 0.59425,-7.50474 0.59425,-7.50474 2.37252,-0.43827 4.75437,-0.74943 7.14592,-0.93277 2.40258,-0.20244 4.80432,-0.26723 7.2055,-0.19351 6.31963,0.19416 10.83864,1.4569 13.51687,3.79723 2.71715,2.33652 3.90202,6.04938 3.54149,11.13778 m -17.6317,3.03428 c -2.32961,-0.10802 -4.10799,0.16465 -5.34066,0.81687 -1.20998,0.65212 -1.86728,1.66597 -1.97345,3.04307 -0.0977,1.26632 0.28947,2.28733 1.16278,3.06358 0.89715,0.76025 2.18632,1.18597 3.86988,1.27623 2.10615,0.11293 3.93528,-0.46868 5.48369,-1.74689 1.55258,-1.29936 2.40568,-2.97583 2.55704,-5.02604 0,0 0.0854,-1.1558 0.0854,-1.1558 0,0 -5.8446,-0.27102 -5.8446,-0.27102 M 301.06552,653.575 c 0,0 -0.51546,8.55525 -0.51546,8.55525 -1.61649,-1.04301 -3.25456,-1.82954 -4.91441,-2.36093 -1.63217,-0.52888 -3.34189,-0.82581 -5.12887,-0.89182 -3.37849,-0.12474 -6.05513,0.627 -8.04084,2.25189 -1.95774,1.6029 -3.03416,3.91507 -3.2328,6.9428 -0.19899,3.03244 0.56982,5.44762 2.31184,7.24737 1.77265,1.78869 4.35034,2.77554 7.74213,2.95589 1.90778,0.10145 3.7342,-0.0477 5.47809,-0.44834 1.77132,-0.40053 3.42366,-1.04567 4.95575,-1.93592 0,0 -0.52318,8.6834 -0.52318,8.6834 -1.974,0.50068 -3.96703,0.8399 -5.97855,1.01832 -1.98365,0.19891 -3.9626,0.23926 -5.9366,0.12182 -6.8245,-0.40598 -12.00854,-2.22478 -15.58899,-5.44068 -3.55094,-3.20974 -5.13341,-7.45903 -4.7691,-12.75608 0.36328,-5.28269 2.50683,-9.3233 6.44557,-12.14271 3.95907,-2.85209 9.30584,-4.18014 16.08333,-3.972 1.98284,0.0609 3.92869,0.27578 5.83741,0.64528 1.93911,0.35211 3.86395,0.86065 5.77468,1.52646 m 37.04108,13.40369 c 0.10425,-2.06228 -0.54488,-3.74723 -1.94414,-5.05355 -1.36982,-1.32158 -3.21646,-2.02337 -5.53637,-2.10805 -2.50354,-0.0913 -4.56183,0.42351 -6.18015,1.54261 -1.61417,1.09708 -2.6706,2.7335 -3.17181,4.91168 0,0 16.83247,0.70731 16.83247,0.70731 m 13.47966,4.2281 c 0,0 -0.14768,3.13783 -0.14768,3.13783 0,0 -30.67109,-1.45463 -30.67109,-1.45463 0.17147,2.53922 1.15448,4.4902 2.95382,5.85331 1.80592,1.36814 4.40136,2.14472 7.79525,2.32669 2.75293,0.1476 5.59648,-0.037 8.53095,-0.55595 2.97285,-0.54035 6.05016,-1.42762 9.23234,-2.66398 0,0 -0.40522,8.51788 -0.40522,8.51788 -3.21813,0.80643 -6.40949,1.3628 -9.57369,1.67077 -3.15025,0.32693 -6.27237,0.39744 -9.36599,0.21341 -7.34298,-0.43684 -12.90928,-2.32162 -16.74063,-5.63793 -3.77585,-3.30821 -5.4912,-7.72066 -5.16949,-13.24561 0.31504,-5.41075 2.48542,-9.58449 6.52615,-12.54299 4.08355,-2.97177 9.57658,-4.35723 16.52262,-4.14392 6.39173,0.19637 11.46847,1.957 15.20259,5.30004 3.78846,3.37045 5.56621,7.78175 5.31007,13.22508"
         style="font-size:48px;font-style:normal;font-variant:normal;font-weight:bold;font-stretch:normal;line-height:125%;letter-spacing:0px;word-spacing:0px;fill:#666666;fill-opacity:1;stroke:none;font-family:DejaVu Sans;-inkscape-font-specification:DejaVu Sans Bold"
         id="path3952"
         inkscape:connector-curvature="0" />
      <g
         style="filter:url(#filter5345)"
         id="g5339">
        <path
           inkscape:connector-curvature="0"
           style="font-size:48px;font-style:normal;font-variant:normal;font-weight:bold;font-stretch:normal;line-height:125%;letter-spacing:0px;word-spacing:0px;fill:#86ba0c;fill-opacity:1;stroke:none;font-family:DejaVu Sans;-inkscape-font-specification:DejaVu Sans Bold"
           d="m 62.509154,519.89285 c 0,0 -28.408298,-61.12036 -28.408298,-61.12036 0,0 45.028688,-70.96466 45.028688,-70.96466 0,0 82.229416,-18.90503 82.229416,-18.90503 0,0 39.83741,62.20972 39.83741,62.20972 0,0 -54.645,80.57148 -54.645,80.57148 0,0 -84.042216,8.20885 -84.042216,8.20885"
           id="path3948" />
        <path
           inkscape:connector-curvature="0"
           style="font-size:48px;font-style:normal;font-variant:normal;font-weight:bold;font-stretch:normal;line-height:125%;letter-spacing:0px;word-spacing:0px;fill:#bd1788;fill-opacity:1;stroke:none;font-family:DejaVu Sans;-inkscape-font-specification:DejaVu Sans Bold"
           d="m 191.65448,588.15239 c 0,0 -40.99936,-74.92359 -40.99936,-74.92359 0,0 55.00247,-80.91455 55.00247,-80.91455 0,0 108.94918,-17.84487 108.94918,-17.84487 0,0 59.07771,77.38505 59.07771,77.38505 0,0 -69.41919,93.58443 -69.41919,93.58443 0,0 -112.61081,2.71353 -112.61081,2.71353"
           id="path3946" />
        <path
           inkscape:connector-curvature="0"
           style="font-size:48px;font-style:normal;font-variant:normal;font-weight:bold;font-stretch:normal;line-height:125%;letter-spacing:0px;word-spacing:0px;fill:#ef7c00;fill-opacity:1;stroke:none;font-family:DejaVu Sans;-inkscape-font-specification:DejaVu Sans Bold"
           d="m 44.725859,666.61444 c 0,0 -28.460499,-71.76531 -28.460499,-71.76531 0,0 46.365907,-70.72872 46.365907,-70.72872 0,0 84.219433,-7.85812 84.219433,-7.85812 0,0 40.62808,74.91909 40.62808,74.91909 0,0 -56.67617,80.13154 -56.67617,80.13154 0,0 -86.076751,-4.69848 -86.076751,-4.69848"
           id="path3250" />
        <path
           inkscape:connector-curvature="0"
           style="font-size:48px;font-style:normal;font-variant:normal;font-weight:bold;font-stretch:normal;line-height:125%;letter-spacing:0px;word-spacing:0px;fill:none;stroke:#28e3e5;stroke-width:4;stroke-miterlimit:4;stroke-opacity:1;stroke-dasharray:none;filter:url(#filter5317);font-family:DejaVu Sans;-inkscape-font-specification:DejaVu Sans Bold"
           d="m 145.26916,515.71075 c 0,0 58.16511,-83.97411 58.16511,-83.97411 0,0 113.919,-17.66874 113.919,-17.66874 0,0 61.00727,82.15249 61.00727,82.15249"
           id="path3950" />
      </g>
    </g>
  </g>
</svg>
